<?xml version="1.0" encoding="utf-8"?>
<!-- Generator: Adobe Illustrator 23.0.5, SVG Export Plug-In . SVG Version: 6.00 Build 0)  -->
<svg version="1.1" id="Layer_1" xmlns="http://www.w3.org/2000/svg" xmlns:xlink="http://www.w3.org/1999/xlink" x="0px" y="0px"
	 viewBox="0 0 180.2 179.7" style="enable-background:new 0 0 180.2 179.7;" xml:space="preserve">
<style type="text/css">
	.st0{display:none;}
	.st1{display:inline;}
	.st2{fill:#444444;}
	.st3{fill:url(#SVGID_1_);}
	.st4{fill:url(#SVGID_2_);}
</style>
<g class="st0">
	<g class="st1">
		<path class="st2" d="M227.4,111.1c6,0,10.1-5.1,13.4-10.8l1.6,1.4c-6.9,15.5-15.2,22-27,22c-14,0-25.1-10.7-25.1-32.2
			c0-21.4,14.1-33.6,29.6-33.6c9.6,0,16.6,5.6,23,18.3l-1.3,2.2c-4.7-6-9.1-8.3-13.4-8.3c-7.5,0-12.2,7.1-12.2,21.2
			C215.9,104,220.5,111.1,227.4,111.1z M251.1,140.7l10.5,2.5v6.6H226v-6.6l9.3-2.5H251.1z M257.1,149.8h-24.5
			c0.3-8.9,0.4-17.8,0.4-26.6v-10l-0.4-1.8V66.2l20.1-8.4l4.4,1.3l-0.4,17.1v47C256.7,132,256.8,140.9,257.1,149.8z"/>
		<path class="st2" d="M295.5,101.5c0,6.6,2.3,8.6,5.6,8.6c4.4,0,10.4-5.8,13.2-10.8h5.7v9.1h-9l3.9-4.3
			c-5.6,11.9-14,19.6-25.3,19.6c-11.2,0-18.8-6.1-18.5-22.8l0.5-34.4l4.6,4.7L265,68.7v-5.8l28.8-4.4l2.3,1.4l-0.6,18V101.5
			L295.5,101.5z M310,123.2l-0.8-15l0.5-41.9l4.6,4.8l-10.7-2.5v-5.1l28-5.1l2.3,1.4l-0.4,18v43.8l-10.5-9.8l16.4,3.4v6.5L310,123.2
			z"/>
		<path class="st2" d="M350.2,121.6c0.3-5.7,0.4-18.8,0.4-26.7v-6c0-7-0.1-10.9-0.4-16l-6.9-1.1v-5.2l29.5-8.8l2.3,1.4l-0.4,18.9V95
			c0,7.9,0.1,20.9,0.4,26.7L350.2,121.6L350.2,121.6z M380.2,115.2v6.5h-35.4v-6.5l10.9-2.5H368L380.2,115.2z M350.7,39.4
			c0-6.3,5.2-10.9,11.7-10.9s11.7,4.6,11.7,10.9s-5.2,10.9-11.7,10.9C356,50.3,350.7,45.7,350.7,39.4z"/>
		<path class="st2" d="M439.5,59.8v5.1l-31.9,56.7v-6.1h26.8l-10.9,6.1l5.2-21.4h11.8l-1.3,21.4h-55.1v-5.2l33.4-56.6v6h-25.9l9.9-6
			l-5,20.1l-11.7-0.5l1-19.5L439.5,59.8L439.5,59.8z"/>
		<path class="st2" d="M481.6,111.1c6,0,10.1-5.2,13.5-10.9l1.6,1.5c-6.9,15.5-15.2,22-27,22c-14,0-25.1-10.8-25.1-32.4
			c0-21.2,14.5-33.5,28.3-33.5c12.4,0,17.4,7.2,23,19l-1.3,2.2c-4.1-5.6-7.1-9-12.4-9c-7,0-11.9,7-11.9,21.1
			C470.2,103.9,474.7,111.1,481.6,111.1z M515.5,115.2v6.5l-26.9,1.5l-1.8-10.7v-44l0.9-1.3V42.8l-8.1-1.3v-5.7l29.7-5.7l2.2,1.4
			L511,49.1v72.5l-11.2-10.3L515.5,115.2z"/>
		<path class="st2" d="M521.3,90.3c0-18.9,14-32.5,33.5-32.5s33.5,13.2,33.5,32.5s-11.8,33.4-33.5,33.4
			C533,123.7,521.3,109.2,521.3,90.3z M563,90.7c0-18.4-2.5-25.9-8.1-25.9s-8.1,7.5-8.1,25.9c0,18.5,2.5,26,8.1,26
			C560.4,116.7,563,109.2,563,90.7z"/>
		<path class="st2" d="M599.6,121.6c0.3-5.7,0.4-18.8,0.4-26.7V87c0-7,0-9.1-0.4-14.2l-6.8-1.1v-5.2l28-8.8l2.3,1.4l1,13.8v22
			c0,7.9,0.1,20.9,0.4,26.6L599.6,121.6L599.6,121.6z M629.1,115.2v6.5h-35v-6.5l10.9-2.5h12.4L629.1,115.2z M661.7,79v16
			c0,8.1,0.1,20.9,0.4,26.7h-24.4c0.3-5.7,0.4-18.5,0.4-26.7V82.2c0-7.7-1.3-10.8-6.1-10.8c-5.2,0-11.3,5.3-13.8,9.5h-5.5v-9.1h8.5
			l-3.2,4.1c8.4-12.7,14.7-18,24.6-18C655.1,57.8,661.7,65.2,661.7,79z M655.3,112.6l11.3,2.5v6.5h-34.1v-6.5l10.2-2.5H655.3z
			 M699,80.4V95c0,8.1,0.1,20.9,0.4,26.6H675c0.3-5.7,0.4-18.5,0.4-26.7V82.1c0-8.6-1.5-10.8-5.8-10.8c-5.3,0-10.4,4.1-14.3,9.5
			h-5.1v-9.9h9.8l-5,4.9c9.9-14.6,16.1-18,24.6-18C693.4,57.8,699,65.5,699,80.4z M692.8,112.6l11.7,2.5v6.5h-34v-6.5l9.3-2.5H692.8
			z"/>
	</g>
</g>
<g>
	
		<linearGradient id="SVGID_1_" gradientUnits="userSpaceOnUse" x1="14.3705" y1="92.9675" x2="155.4705" y2="92.9675" gradientTransform="matrix(1 0 0 -1 0 181.7349)">
		<stop  offset="0" style="stop-color:#FF0000"/>
		<stop  offset="1" style="stop-color:#FF7E39"/>
	</linearGradient>
	<polygon class="st3" points="155.5,50.1 139,33.5 61.6,110.9 30.9,80.3 14.4,96.8 45,127.4 44.9,127.5 61.5,144.1 61.6,144 
		61.7,144.1 78.2,127.5 78.1,127.5 	"/>
	
		<linearGradient id="SVGID_2_" gradientUnits="userSpaceOnUse" x1="109.1105" y1="64.0675" x2="166.0105" y2="64.0675" gradientTransform="matrix(1 0 0 -1 0 181.7349)">
		<stop  offset="0" style="stop-color:#FF0000"/>
		<stop  offset="1" style="stop-color:#FF7E39"/>
	</linearGradient>
	<path class="st4" d="M165,116.6c-2.2-0.8-4.4-1.6-6.6-2.4c-7.7-2.8-13.3-7.9-16.7-15.4c-1.3-2.9-2.2-5.9-3.4-8.8
		c-0.1-0.4-0.5-0.6-0.8-0.9c-0.3,0.3-0.8,0.6-0.9,0.9c-0.8,2.1-1.5,4.2-2.3,6.3c-2.7,7.4-7.4,13.1-14.6,16.5
		c-3.1,1.5-6.5,2.5-9.8,3.8c-0.4,0.1-0.6,0.5-0.9,0.8c0.3,0.3,0.6,0.7,0.9,0.9c2.1,0.8,4.2,1.5,6.2,2.3c8.9,3.2,15,9.3,18.2,18.2
		c0.8,2.1,1.5,4.2,2.3,6.2c0.1,0.4,0.4,0.7,0.8,1.3c0.4-0.6,0.7-0.9,0.9-1.2c0.8-2.2,1.6-4.4,2.4-6.6c2.9-7.8,8-13.5,15.6-16.9
		c2.8-1.3,5.8-2.2,8.7-3.3c0.4-0.1,0.6-0.5,0.9-0.8C165.7,117.2,165.4,116.8,165,116.6z"/>
</g>
</svg>
